# xmcd CD database file
#
# Track frame offsets:
#	150
#	19418
#	34912
#	48937
#	64885
#	88219
#	119795
#	136942
#	156668
#	174271
#	195572
#	218177
#	242761
#
# Disc length: 3512 seconds
#
# Revision: 0
# Processed by: cddbd v1.5.2PL0 Copyright (c) Steve Scherf et al.
# Submitted via: CDex 1.70beta2
#
DISCID=c20db60d
DTITLE=藤縄てつや - My Blues Heaven
DYEAR=2006
DGENRE=Blues
TTITLE0=My Blues Heaven
TTITLE1=思い通りにならない
TTITLE2=スリーピーブルース(眠りを誘う)
TTITLE3=聞いてみる
TTITLE4=宝さがし
TTITLE5=暦の家
TTITLE6=きれいな女になった
TTITLE7=雨上がり
TTITLE8=ある晴れた日に
TTITLE9=あの空
TTITLE10=コインパーキングブルース
TTITLE11=ひとり暮らしの部屋
TTITLE12=悲しみが空にはばたく頃
EXTD=YEAR: 2006
EXTT0=
EXTT1=
EXTT2=
EXTT3=
EXTT4=
EXTT5=
EXTT6=
EXTT7=
EXTT8=
EXTT9=
EXTT10=
EXTT11=
EXTT12=
PLAYORDER=
